PathFileType	3	(X/Y/Z)	walking_2__view2_aligned.trc
DataRate	CameraRate	NumFrames	NumMarkers	Units	OrigDataRate	OrigDataStartFrame	OrigNumFrames
100.0	100.0	14	19	mm	100.0	2587	6310
Frame#	Time	pelvis			neck			head			hip_left			hip_right			knee_left			knee_right			ankle_left			ankle_right			heel_left			heel_right			toe_left			toe_right			shoulder_left			shoulder_right			elbow_left			elbow_right			wrist_left			wrist_right			
		X1	Y1	Z1	X2	Y2	Z2	X3	Y3	Z3	X4	Y4	Z4	X5	Y5	Z5	X6	Y6	Z6	X7	Y7	Z7	X8	Y8	Z8	X9	Y9	Z9	X10	Y10	Z10	X11	Y11	Z11	X12	Y12	Z12	X13	Y13	Z13	X14	Y14	Z14	X15	Y15	Z15	X16	Y16	Z16	X17	Y17	Z17	X18	Y18	Z18	X19	Y19	Z19	
2587	25.86000	-5.378656	933.582090	178.178216	8.336450	1489.807325	232.595019	19.022706	1571.419081	386.066359	68.281173	930.774554	170.872947	-79.038628	936.389641	185.483473	121.080113	541.408768	385.413779	-79.890851	492.471747	162.624050	129.387723	159.952362	339.099220	-74.835601	130.826465	-16.543089	124.756793	116.004889	307.695186	-75.790956	91.050661	-60.332516	126.682558	97.924747	506.147667	-71.361298	48.548295	150.019483	173.004911	1432.693338	138.898701	-178.150034	1431.034564	245.815448	244.463852	1148.219787	73.239739	-236.605714	1138.802029	283.058756	333.470406	910.599115	128.783598	-189.090310	926.096750	436.657039
2588	25.87000	-4.134815	932.648598	178.365610	9.662065	1488.892442	232.326529	20.352489	1570.489616	385.756152	69.547950	930.024637	171.287978	-77.817749	935.272576	185.443232	121.435733	541.194583	386.855241	-80.803517	491.178001	160.046658	130.353010	155.667437	348.975430	-76.462886	134.295500	-25.295412	125.988195	110.332048	318.369334	-77.337750	95.585397	-69.549742	126.567365	98.361145	520.082461	-73.790140	49.848958	138.489128	174.361073	1431.310140	138.456899	-177.066398	1430.418913	245.898288	244.903919	1146.563701	72.223223	-235.559449	1138.270793	284.664625	333.963188	907.618936	123.930508	-186.181849	927.034848	441.360008
2589	25.88000	-2.890975	931.715105	178.553005	10.987681	1487.977560	232.058039	21.682272	1569.560151	385.445944	70.814727	929.274719	171.703008	-76.596869	934.155511	185.402992	121.791352	540.980397	388.296703	-81.716184	489.884255	157.469266	131.318297	151.382511	358.851640	-78.090172	137.764535	-34.047735	127.219598	104.659207	329.043481	-78.884544	100.120133	-78.766968	126.452173	98.797542	534.017256	-76.218983	51.149621	126.958773	175.717236	1429.926941	138.015098	-175.982762	1429.803262	245.981127	245.343987	1144.907614	71.206707	-234.513184	1137.739558	286.270494	334.455970	904.638758	119.077418	-183.273387	927.972946	446.062976
2590	25.89000	-1.647135	930.781613	178.740400	12.313297	1487.062677	231.789549	23.012056	1568.630687	385.135736	72.081504	928.524801	172.118038	-75.375990	933.038446	185.362752	122.146972	540.766212	389.738165	-82.628851	488.590509	154.891874	132.283584	147.097586	368.727850	-79.717457	141.233570	-42.800058	128.451000	98.986366	339.717629	-80.431338	104.654869	-87.984194	126.336980	99.233940	547.952050	-78.647825	52.450284	115.428418	177.073398	1428.543743	137.573297	-174.899126	1429.187611	246.063967	245.784054	1143.251528	70.190192	-233.466919	1137.208322	287.876364	334.948752	901.658579	114.224327	-180.364926	928.911045	450.765944
2591	25.90000	-0.403295	929.848120	178.927795	13.638913	1486.147794	231.521059	24.341839	1567.701222	384.825529	73.348280	927.774884	172.533068	-74.155110	931.921381	185.322512	122.502592	540.552027	391.179627	-83.541517	487.296762	152.314482	133.248870	142.812661	378.604060	-81.344742	144.702605	-51.552381	129.682402	93.313525	350.391777	-81.978132	109.189605	-97.201419	126.221788	99.670337	561.886845	-81.076667	53.750946	103.898063	178.429561	1427.160545	137.131496	-173.815490	1428.571960	246.146806	246.224122	1141.595441	69.173676	-232.420654	1136.677086	289.482233	335.441534	898.678400	109.371237	-177.456465	929.849143	455.468912
2592	25.91000	0.755369	929.137798	179.213663	14.709613	1485.363873	231.299877	24.954337	1566.760686	384.475756	74.593262	927.192697	172.956424	-73.082717	931.082912	185.470897	122.454431	539.332996	389.516922	-83.935798	487.341313	154.857116	132.805777	139.257013	381.324644	-81.773226	149.108349	-55.971813	129.251113	89.068769	353.508545	-82.223239	114.811671	-102.233659	125.389181	98.124662	566.467639	-82.076473	54.916821	96.219916	179.778016	1426.219932	137.805658	-172.637904	1427.939714	245.276315	247.068407	1140.309283	70.421414	-231.413035	1136.053791	288.799343	335.369785	895.815449	108.424534	-177.076883	929.536682	455.809998
2593	25.92000	1.914032	928.427475	179.499532	15.780312	1484.579953	231.078695	25.566834	1565.820149	384.125983	75.838244	926.610510	173.379779	-72.010325	930.244442	185.619281	122.406270	538.113966	387.854217	-84.330079	487.385864	157.399749	132.362683	135.701366	384.045228	-82.201711	153.514093	-60.391244	128.819824	84.824013	356.625313	-82.468346	120.433737	-107.265898	124.556574	96.578988	571.048433	-83.076278	56.082695	88.541770	181.126472	1425.279318	138.479821	-171.460317	1427.307467	244.405824	247.912692	1139.023125	71.669152	-230.405415	1135.430495	288.116454	335.298036	892.952497	107.477830	-176.697302	929.224220	456.151083
2594	25.93000	3.072696	927.717152	179.785400	16.851012	1483.796032	230.857513	26.179331	1564.879613	383.776210	77.083226	926.028323	173.803135	-70.937932	929.405973	185.767666	122.358109	536.894936	386.191512	-84.724360	487.430415	159.942383	131.919589	132.145718	386.765812	-82.630195	157.919836	-64.810676	128.388534	80.579257	359.742080	-82.713453	126.055802	-112.298138	123.723967	95.033313	575.629227	-84.076083	57.248569	80.863623	182.474928	1424.338705	139.153983	-170.282731	1426.675221	243.535332	248.756977	1137.736967	72.916890	-229.397796	1134.807200	287.433564	335.226287	890.089545	106.531127	-176.317721	928.911759	456.492169
2595	25.94000	4.231360	927.006830	180.071269	17.921712	1483.012111	230.636330	26.791829	1563.939077	383.426437	78.328208	925.446136	174.226490	-69.865539	928.567504	185.916051	122.309949	535.675905	384.528807	-85.118641	487.474966	162.485017	131.476495	128.590071	389.486396	-83.058679	162.325580	-69.230107	127.957245	76.334502	362.858848	-82.958561	131.677868	-117.330377	122.891361	93.487638	580.210021	-85.075889	58.414443	73.185476	183.823383	1423.398092	139.828146	-169.105145	1426.042974	242.664841	249.601262	1136.450809	74.164628	-228.390177	1134.183905	286.750675	335.154538	887.226594	105.584423	-175.938139	928.599298	456.833254
2596	25.95000	5.390023	926.296507	180.357137	18.992412	1482.228191	230.415148	27.404326	1562.998540	383.076664	79.573189	924.863949	174.649846	-68.793146	927.729035	186.064436	122.261788	534.456875	382.866102	-85.512922	487.519517	165.027650	131.033401	125.034423	392.206980	-83.487163	166.731324	-73.649539	127.525956	72.089746	365.975616	-83.203668	137.299934	-122.362617	122.058754	91.941963	584.790816	-86.075694	59.580318	65.507329	185.171839	1422.457479	140.502308	-167.927558	1425.410727	241.794350	250.445547	1135.164651	75.412366	-227.382557	1133.560609	286.067786	335.082789	884.363642	104.637719	-175.558558	928.286836	457.174340
2597	25.96000	6.548687	925.586184	180.643006	20.063111	1481.444270	230.193966	28.016823	1562.058004	382.726891	80.818171	924.281761	175.073201	-67.720754	926.890566	186.212820	122.213627	533.237844	381.203397	-85.907203	487.564068	167.570284	130.590308	121.478776	394.927565	-83.915647	171.137068	-78.068971	127.094667	67.844990	369.092384	-83.448775	142.922000	-127.394856	121.226147	90.396289	589.371610	-87.075499	60.746192	57.829182	186.520295	1421.516865	141.176471	-166.749972	1424.778481	240.923858	251.289832	1133.878493	76.660104	-226.374938	1132.937314	285.384896	335.011040	881.500690	103.691016	-175.178976	927.974375	457.515425
2598	25.97000	7.707351	924.875861	180.928874	21.133811	1480.660349	229.972784	28.629321	1561.117468	382.377118	82.063153	923.699574	175.496556	-66.648361	926.052097	186.361205	122.165466	532.018814	379.540692	-86.301485	487.608619	170.112918	130.147214	117.923128	397.648149	-84.344131	175.542812	-82.488402	126.663377	63.600234	372.209152	-83.693882	148.544066	-132.427096	120.393540	88.850614	593.952404	-88.075305	61.912066	50.151036	187.868750	1420.576252	141.850633	-165.572386	1424.146234	240.053367	252.134116	1132.592335	77.907842	-225.367319	1132.314019	284.702007	334.939291	878.637739	102.744312	-174.799395	927.661914	457.856511
2599	25.98000	8.866014	924.165539	181.214743	22.204511	1479.876428	229.751602	29.241818	1560.176931	382.027345	83.308135	923.117387	175.919912	-65.575968	925.213627	186.509590	122.117306	530.799784	377.877987	-86.695766	487.653170	172.655551	129.704120	114.367481	400.368733	-84.772615	179.948556	-86.907834	126.232088	59.355479	375.325919	-83.938989	154.166132	-137.459335	119.560933	87.304939	598.533198	-89.075110	63.077941	42.472889	189.217206	1419.635639	142.524796	-164.394799	1423.513988	239.182875	252.978401	1131.306177	79.155580	-224.359699	1131.690723	284.019117	334.867542	875.774787	101.797609	-174.419813	927.349452	458.197596
2600	25.99000	10.024678	923.455216	181.500611	23.275211	1479.092508	229.530420	29.854315	1559.236395	381.677571	84.553117	922.535200	176.343267	-64.503575	924.375158	186.657975	122.069145	529.580753	376.215282	-87.090047	487.697721	175.198185	129.261026	110.811833	403.089317	-85.201099	184.354300	-91.327265	125.800799	55.110723	378.442687	-84.184096	159.788197	-142.491575	118.728326	85.759264	603.113992	-90.074915	64.243815	34.794742	190.565662	1418.695025	143.198959	-163.217213	1422.881741	238.312384	253.822686	1130.020019	80.403318	-223.352080	1131.067428	283.336228	334.795793	872.911835	100.850905	-174.040232	927.036991	458.538682
